<svg width="256" height="256" viewBox="0 0 256 256" fill="none" xmlns="http://www.w3.org/2000/svg">
<g clip-path="url(#clip0_3_437)">
<mask id="mask0_3_437" style="mask-type:alpha" maskUnits="userSpaceOnUse" x="0" y="0" width="256" height="256">
<g clip-path="url(#clip1_3_437)">
<circle cx="4" cy="4" r="4" fill="#0E5A21"/>
<circle cx="24" cy="4" r="4" fill="#0E5A21"/>
<circle cx="44" cy="4" r="4" fill="#0E5A21"/>
<circle cx="64" cy="4" r="4" fill="#0E5A21"/>
<circle cx="84" cy="4" r="4" fill="#0E5A21"/>
<circle cx="104" cy="4" r="4" fill="#0E5A21"/>
<circle cx="124" cy="4" r="4" fill="#0E5A21"/>
<circle cx="144" cy="4" r="4" fill="#0E5A21"/>
<circle cx="164" cy="4" r="4" fill="#0E5A21"/>
<circle cx="184" cy="4" r="4" fill="#0E5A21"/>
<circle cx="204" cy="4" r="4" fill="#0E5A21"/>
<circle cx="224" cy="4" r="4" fill="#0E5A21"/>
<circle cx="244" cy="4" r="4" fill="#0E5A21"/>
<circle cx="4" cy="24" r="4" fill="#0E5A21"/>
<circle cx="24" cy="24" r="4" fill="#0E5A21"/>
<circle cx="44" cy="24" r="4" fill="#0E5A21"/>
<circle cx="64" cy="24" r="4" fill="#0E5A21"/>
<circle cx="84" cy="24" r="4" fill="#0E5A21"/>
<circle cx="104" cy="24" r="4" fill="#0E5A21"/>
<circle cx="124" cy="24" r="4" fill="#0E5A21"/>
<circle cx="144" cy="24" r="4" fill="#0E5A21"/>
<circle cx="164" cy="24" r="4" fill="#0E5A21"/>
<circle cx="184" cy="24" r="4" fill="#0E5A21"/>
<circle cx="204" cy="24" r="4" fill="#0E5A21"/>
<circle cx="224" cy="24" r="4" fill="#0E5A21"/>
<circle cx="244" cy="24" r="4" fill="#0E5A21"/>
<circle cx="4" cy="44" r="4" fill="#0E5A21"/>
<circle cx="24" cy="44" r="4" fill="#0E5A21"/>
<circle cx="44" cy="44" r="4" fill="#0E5A21"/>
<circle cx="64" cy="44" r="4" fill="#0E5A21"/>
<circle cx="84" cy="44" r="4" fill="#0E5A21"/>
<circle cx="104" cy="44" r="4" fill="#0E5A21"/>
<circle cx="124" cy="44" r="4" fill="#0E5A21"/>
<circle cx="144" cy="44" r="4" fill="#0E5A21"/>
<circle cx="164" cy="44" r="4" fill="#0E5A21"/>
<circle cx="184" cy="44" r="4" fill="#0E5A21"/>
<circle cx="204" cy="44" r="4" fill="#0E5A21"/>
<circle cx="224" cy="44" r="4" fill="#0E5A21"/>
<circle cx="244" cy="44" r="4" fill="#0E5A21"/>
<circle cx="4" cy="64" r="4" fill="#0E5A21"/>
<circle cx="24" cy="64" r="4" fill="#0E5A21"/>
<circle cx="44" cy="64" r="4" fill="#0E5A21"/>
<circle cx="64" cy="64" r="4" fill="#0E5A21"/>
<circle cx="84" cy="64" r="4" fill="#0E5A21"/>
<circle cx="104" cy="64" r="4" fill="#0E5A21"/>
<circle cx="124" cy="64" r="4" fill="#0E5A21"/>
<circle cx="144" cy="64" r="4" fill="#0E5A21"/>
<circle cx="164" cy="64" r="4" fill="#0E5A21"/>
<circle cx="184" cy="64" r="4" fill="#0E5A21"/>
<circle cx="204" cy="64" r="4" fill="#0E5A21"/>
<circle cx="224" cy="64" r="4" fill="#0E5A21"/>
<circle cx="244" cy="64" r="4" fill="#0E5A21"/>
<circle cx="4" cy="84" r="4" fill="#0E5A21"/>
<circle cx="24" cy="84" r="4" fill="#0E5A21"/>
<circle cx="44" cy="84" r="4" fill="#0E5A21"/>
<circle cx="64" cy="84" r="4" fill="#0E5A21"/>
<circle cx="84" cy="84" r="4" fill="#0E5A21"/>
<circle cx="104" cy="84" r="4" fill="#0E5A21"/>
<circle cx="124" cy="84" r="4" fill="#0E5A21"/>
<circle cx="144" cy="84" r="4" fill="#0E5A21"/>
<circle cx="164" cy="84" r="4" fill="#0E5A21"/>
<circle cx="184" cy="84" r="4" fill="#0E5A21"/>
<circle cx="204" cy="84" r="4" fill="#0E5A21"/>
<circle cx="224" cy="84" r="4" fill="#0E5A21"/>
<circle cx="244" cy="84" r="4" fill="#0E5A21"/>
<circle cx="4" cy="104" r="4" fill="#0E5A21"/>
<circle cx="24" cy="104" r="4" fill="#0E5A21"/>
<circle cx="44" cy="104" r="4" fill="#0E5A21"/>
<circle cx="64" cy="104" r="4" fill="#0E5A21"/>
<circle cx="84" cy="104" r="4" fill="#0E5A21"/>
<circle cx="104" cy="104" r="4" fill="#0E5A21"/>
<circle cx="124" cy="104" r="4" fill="#0E5A21"/>
<circle cx="144" cy="104" r="4" fill="#0E5A21"/>
<circle cx="164" cy="104" r="4" fill="#0E5A21"/>
<circle cx="184" cy="104" r="4" fill="#0E5A21"/>
<circle cx="204" cy="104" r="4" fill="#0E5A21"/>
<circle cx="224" cy="104" r="4" fill="#0E5A21"/>
<circle cx="244" cy="104" r="4" fill="#0E5A21"/>
<circle cx="4" cy="124" r="4" fill="#0E5A21"/>
<circle cx="24" cy="124" r="4" fill="#0E5A21"/>
<circle cx="44" cy="124" r="4" fill="#0E5A21"/>
<circle cx="64" cy="124" r="4" fill="#0E5A21"/>
<circle cx="84" cy="124" r="4" fill="#0E5A21"/>
<circle cx="104" cy="124" r="4" fill="#0E5A21"/>
<circle cx="124" cy="124" r="4" fill="#0E5A21"/>
<circle cx="144" cy="124" r="4" fill="#0E5A21"/>
<circle cx="164" cy="124" r="4" fill="#0E5A21"/>
<circle cx="184" cy="124" r="4" fill="#0E5A21"/>
<circle cx="204" cy="124" r="4" fill="#0E5A21"/>
<circle cx="224" cy="124" r="4" fill="#0E5A21"/>
<circle cx="244" cy="124" r="4" fill="#0E5A21"/>
<circle cx="4" cy="144" r="4" fill="#0E5A21"/>
<circle cx="24" cy="144" r="4" fill="#0E5A21"/>
<circle cx="44" cy="144" r="4" fill="#0E5A21"/>
<circle cx="64" cy="144" r="4" fill="#0E5A21"/>
<circle cx="84" cy="144" r="4" fill="#0E5A21"/>
<circle cx="104" cy="144" r="4" fill="#0E5A21"/>
<circle cx="124" cy="144" r="4" fill="#0E5A21"/>
<circle cx="144" cy="144" r="4" fill="#0E5A21"/>
<circle cx="164" cy="144" r="4" fill="#0E5A21"/>
<circle cx="184" cy="144" r="4" fill="#0E5A21"/>
<circle cx="204" cy="144" r="4" fill="#0E5A21"/>
<circle cx="224" cy="144" r="4" fill="#0E5A21"/>
<circle cx="244" cy="144" r="4" fill="#0E5A21"/>
<circle cx="4" cy="164" r="4" fill="#0E5A21"/>
<circle cx="24" cy="164" r="4" fill="#0E5A21"/>
<circle cx="44" cy="164" r="4" fill="#0E5A21"/>
<circle cx="64" cy="164" r="4" fill="#0E5A21"/>
<circle cx="84" cy="164" r="4" fill="#0E5A21"/>
<circle cx="104" cy="164" r="4" fill="#0E5A21"/>
<circle cx="124" cy="164" r="4" fill="#0E5A21"/>
<circle cx="144" cy="164" r="4" fill="#0E5A21"/>
<circle cx="164" cy="164" r="4" fill="#0E5A21"/>
<circle cx="184" cy="164" r="4" fill="#0E5A21"/>
<circle cx="204" cy="164" r="4" fill="#0E5A21"/>
<circle cx="224" cy="164" r="4" fill="#0E5A21"/>
<circle cx="244" cy="164" r="4" fill="#0E5A21"/>
<circle cx="4" cy="184" r="4" fill="#0E5A21"/>
<circle cx="24" cy="184" r="4" fill="#0E5A21"/>
<circle cx="44" cy="184" r="4" fill="#0E5A21"/>
<circle cx="64" cy="184" r="4" fill="#0E5A21"/>
<circle cx="84" cy="184" r="4" fill="#0E5A21"/>
<circle cx="104" cy="184" r="4" fill="#0E5A21"/>
<circle cx="124" cy="184" r="4" fill="#0E5A21"/>
<circle cx="144" cy="184" r="4" fill="#0E5A21"/>
<circle cx="164" cy="184" r="4" fill="#0E5A21"/>
<circle cx="184" cy="184" r="4" fill="#0E5A21"/>
<circle cx="204" cy="184" r="4" fill="#0E5A21"/>
<circle cx="224" cy="184" r="4" fill="#0E5A21"/>
<circle cx="244" cy="184" r="4" fill="#0E5A21"/>
<circle cx="4" cy="204" r="4" fill="#0E5A21"/>
<circle cx="24" cy="204" r="4" fill="#0E5A21"/>
<circle cx="44" cy="204" r="4" fill="#0E5A21"/>
<circle cx="64" cy="204" r="4" fill="#0E5A21"/>
<circle cx="84" cy="204" r="4" fill="#0E5A21"/>
<circle cx="104" cy="204" r="4" fill="#0E5A21"/>
<circle cx="124" cy="204" r="4" fill="#0E5A21"/>
<circle cx="144" cy="204" r="4" fill="#0E5A21"/>
<circle cx="164" cy="204" r="4" fill="#0E5A21"/>
<circle cx="184" cy="204" r="4" fill="#0E5A21"/>
<circle cx="204" cy="204" r="4" fill="#0E5A21"/>
<circle cx="224" cy="204" r="4" fill="#0E5A21"/>
<circle cx="244" cy="204" r="4" fill="#0E5A21"/>
<circle cx="4" cy="224" r="4" fill="#0E5A21"/>
<circle cx="24" cy="224" r="4" fill="#0E5A21"/>
<circle cx="44" cy="224" r="4" fill="#0E5A21"/>
<circle cx="64" cy="224" r="4" fill="#0E5A21"/>
<circle cx="84" cy="224" r="4" fill="#0E5A21"/>
<circle cx="104" cy="224" r="4" fill="#0E5A21"/>
<circle cx="124" cy="224" r="4" fill="#0E5A21"/>
<circle cx="144" cy="224" r="4" fill="#0E5A21"/>
<circle cx="164" cy="224" r="4" fill="#0E5A21"/>
<circle cx="184" cy="224" r="4" fill="#0E5A21"/>
<circle cx="204" cy="224" r="4" fill="#0E5A21"/>
<circle cx="224" cy="224" r="4" fill="#0E5A21"/>
<circle cx="244" cy="224" r="4" fill="#0E5A21"/>
<circle cx="4" cy="244" r="4" fill="#0E5A21"/>
<circle cx="24" cy="244" r="4" fill="#0E5A21"/>
<circle cx="44" cy="244" r="4" fill="#0E5A21"/>
<circle cx="64" cy="244" r="4" fill="#0E5A21"/>
<circle cx="84" cy="244" r="4" fill="#0E5A21"/>
<circle cx="104" cy="244" r="4" fill="#0E5A21"/>
<circle cx="124" cy="244" r="4" fill="#0E5A21"/>
<circle cx="144" cy="244" r="4" fill="#0E5A21"/>
<circle cx="164" cy="244" r="4" fill="#0E5A21"/>
<circle cx="184" cy="244" r="4" fill="#0E5A21"/>
<circle cx="204" cy="244" r="4" fill="#0E5A21"/>
<circle cx="224" cy="244" r="4" fill="#0E5A21"/>
<circle cx="244" cy="244" r="4" fill="#0E5A21"/>
</g>
</mask>
<g mask="url(#mask0_3_437)">
<path d="M128 8C194.274 8 248 61.7258 248 128C248 194.274 194.274 248 128 248C61.7258 248 8 194.274 8 128C8 61.7258 61.7258 8 128 8Z" fill="url(#paint0_radial_3_437)"/>
</g>
<path d="M64.184 195.762C58.8827 195.762 54.1967 194.721 50.126 192.638C46.15 190.555 43.1207 187.621 41.038 183.834C38.9553 180.142 38.056 175.693 38.34 170.486L39.76 148.902C40.044 145.021 39.2393 142.086 37.346 140.098C35.5473 138.11 32.4707 137.116 28.116 137.116H11.218V120.786H28.116C32.4707 120.786 35.5473 119.792 37.346 117.804C39.2393 115.816 40.044 112.929 39.76 109.142L38.34 86.848C38.056 81.736 38.9553 77.334 41.038 73.642C43.1207 69.95 46.15 67.11 50.126 65.122C54.1967 63.134 58.8827 62.14 64.184 62.14H73.982V78.47H66.74C63.332 78.47 60.634 79.2747 58.646 80.884C56.7527 82.4933 55.9007 85.0493 56.09 88.552L57.51 110.704C57.8887 116.289 56.232 120.786 52.54 124.194C48.848 127.602 43.6887 129.306 37.062 129.306V128.312C43.594 128.312 48.706 130.063 52.398 133.566C56.1847 136.974 57.8887 141.518 57.51 147.198L56.09 169.35C55.9953 172.474 56.8947 174.935 58.788 176.734C60.776 178.438 63.4267 179.29 66.74 179.29H73.982V195.762H64.184ZM123.485 181.562C112.977 181.562 104.646 178.675 98.4925 172.9C92.4339 167.031 89.4045 159.173 89.4045 149.328H107.155C107.155 154.535 108.622 158.605 111.557 161.54C114.491 164.475 118.467 165.942 123.485 165.942C128.502 165.942 132.478 164.522 135.413 161.682C138.347 158.747 139.815 154.677 139.815 149.47V92.812H115.675V76.34H157.565V149.47C157.565 159.41 154.488 167.267 148.335 173.042C142.276 178.722 133.993 181.562 123.485 181.562ZM181.507 195.762V179.29H188.749C192.062 179.29 194.713 178.438 196.701 176.734C198.689 174.935 199.588 172.474 199.399 169.35L197.979 147.198C197.6 141.518 199.257 136.974 202.949 133.566C206.736 130.063 211.895 128.312 218.427 128.312V129.306C211.895 129.306 206.736 127.602 202.949 124.194C199.257 120.786 197.6 116.289 197.979 110.704L199.399 88.552C199.588 85.0493 198.689 82.4933 196.701 80.884C194.808 79.2747 192.157 78.47 188.749 78.47H181.507V62.14H191.305C196.606 62.14 201.245 63.134 205.221 65.122C209.292 67.11 212.368 69.95 214.451 73.642C216.534 77.334 217.433 81.736 217.149 86.848L215.729 109.142C215.445 112.929 216.25 115.816 218.143 117.804C220.036 119.792 223.113 120.786 227.373 120.786H244.271V137.116H227.373C223.113 137.116 220.036 138.11 218.143 140.098C216.25 142.086 215.445 145.021 215.729 148.902L217.149 170.486C217.433 175.693 216.534 180.142 214.451 183.834C212.368 187.621 209.292 190.555 205.221 192.638C201.245 194.721 196.606 195.762 191.305 195.762H181.507Z" fill="#107C2B"/>
</g>
<defs>
<radialGradient id="paint0_radial_3_437" cx="0" cy="0" r="1" gradientUnits="userSpaceOnUse" gradientTransform="translate(128 128) rotate(90) scale(120)">
<stop stop-color="#24C14B"/>
<stop offset="1" stop-color="#2FB951" stop-opacity="0"/>
</radialGradient>
<clipPath id="clip0_3_437">
<rect width="256" height="256" fill="white"/>
</clipPath>
<clipPath id="clip1_3_437">
<rect width="256" height="256" fill="white"/>
</clipPath>
</defs>
</svg>
